<?xml version="1.0" encoding="utf-8"?>
<!-- Generator: Adobe Illustrator 25.1.0, SVG Export Plug-In . SVG Version: 6.00 Build 0)  -->
<svg version="1.1" id="Layer_1" xmlns="http://www.w3.org/2000/svg" xmlns:xlink="http://www.w3.org/1999/xlink" x="0px" y="0px"
	 viewBox="0 0 349.2 43" style="enable-background:new 0 0 349.2 43;" xml:space="preserve">
<style type="text/css">
	.st0{fill-rule:evenodd;clip-rule:evenodd;fill:#1D1D1B;}
	.st1{fill:#1D1D1B;}
	.st2{fill:#0093C6;}
	.st3{clip-path:url(#SVGID_2_);fill:#000309;}
	.st4{clip-path:url(#SVGID_2_);fill:#FFFFFF;}
</style>
<g>
	<path class="st0" d="M300.3,31.6c-2.8-2.4-11.1-9.2-15-9.2c-4,0-12.2,6.8-15,9.2c0-0.6,0-0.9,0-1.4c0,0,0-0.8,0.6-1.6
		c6-5.4,12.3-8.1,12.6-8.2c1.9-0.8,1.7-0.6,1.7-3.8h0.2c2.7,0.3,9.8,7.1,14.1,11.9c0,0,0.8,0.9,0.8,1.9
		C300.5,30.8,300.5,31.3,300.3,31.6z M300.3,27.6c-0.5-0.5-11.1-12.2-14.9-12.2S271,27.1,270.5,27.6l0,0c0,0-1.1,1.3-1.1,2.5
		c0,1.1,0,2.2,0,2.2s0,0.5,0.3,0.6h0.2c0.2,0,0.2,0,0.3-0.2c0.2-0.2,10.9-9.6,15.2-9.6c4.3,0,15,9.5,15.2,9.6
		c0.2,0.2,0.2,0.2,0.3,0.2h0.2c0.3-0.2,0.3-0.6,0.3-0.6s0-1.1,0-2.2C301.4,28.9,300.3,27.8,300.3,27.6z"/>
	<path class="st0" d="M300.3,20.5c-2.8-2.4-11.1-9.2-15-9.2c-4,0-12.2,6.8-15,9.2c0-0.6,0-0.9,0-1.4c0,0,0-0.8,0.6-1.6
		c6-5.4,12.3-8.1,12.6-8.2c1.9-0.8,1.7-0.6,1.7-3.8h0.2c2.7,0.3,9.8,7.1,14.1,11.9c0,0,0.8,0.9,0.8,1.9
		C300.5,19.7,300.3,20.2,300.3,20.5z M300.3,16.6c-0.5-0.5-11.1-12.2-14.9-12.2S271,16.1,270.5,16.6l0,0c0,0-1.1,1.3-1.1,2.5
		c0,1.1,0,2.2,0,2.2s0,0.5,0.3,0.6h0.2c0.2,0,0.2,0,0.3-0.2c0.2-0.2,10.9-9.6,15.2-9.6c4.3,0,15,9.5,15.2,9.6
		c0.2,0.2,0.2,0.2,0.3,0.2h0.2c0.3-0.2,0.3-0.6,0.3-0.6s0-1.1,0-2.2C301.3,17.8,300.3,16.7,300.3,16.6z"/>
</g>
<path class="st1" d="M347.2,20l-3.6-0.3h-0.4c0-0.4,0-0.9,0-1.1c0-8.1-6.6-14.7-14.7-14.7c-7,0-12.8,4.9-14.4,11.4h-0.4h-2.9
	c-0.1,0-0.3,0.1-0.4,0.3l-0.9,1.1v0.1c0,0.1,0.1,0.3,0.3,0.3l3.6,0.3h0.4c0,0.4,0,0.9,0,1.1c0,8.1,6.6,14.7,14.7,14.7
	c7,0,12.8-4.9,14.4-11.4h0.4h2.9c0.1,0,0.3-0.1,0.4-0.3l0.9-1.1v-0.1C347.5,20.1,347.4,20,347.2,20z M328.5,5.4
	c7.1,0,13.1,5.9,13.1,13.1c0,0.4,0,0.7,0,1.1l0,0l-10.9-0.7l4.7-3.3l0.1-0.1c0-0.1-0.1-0.3-0.3-0.3h-19.3l0,0
	C317.4,9.5,322.5,5.4,328.5,5.4z M328.5,31.5c-7.1,0-13.1-5.9-13.1-13.1c0-0.4,0-0.7,0-1.1l10.9,0.7l-4.7,3.3l-0.1,0.1
	c0,0.1,0.1,0.3,0.3,0.3h19.3l0,0C339.7,27.4,334.7,31.5,328.5,31.5z"/>
<g>
	<g>
		<g>
			<path d="M145.8,36.7c0.6-0.6,0.6-0.9-0.3-1v-0.4h2.8v0.4c-0.8,0.1-1.1,0.3-2,1.1l-1.5,1.4l2.2,3c0.4,0.5,0.6,0.8,1.4,0.9v0.4
				h-3.2v-0.4c0.8-0.1,0.9-0.3,0.6-0.8l-1.8-2.5l-0.8,0.7v2c0,0.4,0.1,0.4,0.9,0.5v0.4h-3.2V42c0.9,0,1.2-0.1,1.2-0.5V36
				c0-0.3-0.2-0.4-1.2-0.5v-0.4h3.3v0.4c-1,0-1.1,0.1-1.1,0.5v2.9L145.8,36.7z"/>
			<path d="M149.6,42.1c0-0.4,0.3-0.7,0.7-0.7s0.7,0.3,0.7,0.7s-0.3,0.7-0.7,0.7C149.9,42.8,149.6,42.5,149.6,42.1z"/>
			<path d="M157.2,36.6c-0.2-0.6-0.4-0.8-1.1-0.9v-0.4h3v0.4c-0.8,0.1-1,0.3-0.9,0.7l1.5,4.7h0.1l1.3-3.9c0.4-1.1,0.3-1.3-0.7-1.4
				v-0.4h2.7v0.4c-0.7,0.2-1,0.5-1.4,1.4l-1.9,5.6h-0.6l-1.6-4.8l-1.8,4.8h-0.6l-1.9-6.3c-0.1-0.5-0.3-0.6-1.1-0.8v-0.4h3v0.4
				c-0.8,0.1-0.9,0.3-0.8,0.7l1.4,4.6h0.1l1.5-4L157.2,36.6z"/>
			<path d="M162.2,42.1c0-0.4,0.3-0.7,0.7-0.7s0.7,0.3,0.7,0.7s-0.3,0.7-0.7,0.7S162.2,42.5,162.2,42.1z"/>
			<path d="M167.5,42.2c0.9,0,1.2-0.1,1.2-0.5v-5.5c0-0.3-0.2-0.4-1.2-0.5v-0.4h3c2.2,0,2.9,0.8,2.9,1.8c0,0.6-0.3,1.4-1.7,1.6v0.1
				c1.4,0.1,2.1,1,2.1,1.7c0,1.2-0.8,2.1-3.1,2.1h-3.1L167.5,42.2L167.5,42.2z M170.6,38.6c1.3,0,1.7-0.5,1.7-1.4
				c0-0.8-0.3-1.4-1.7-1.4h-0.8v2.7h0.8V38.6z M170.7,42.1c1.7,0,1.9-0.7,1.9-1.6c0-0.9-0.6-1.5-2.1-1.5h-0.8v3.1H170.7z"/>
			<path d="M177.4,41.7c0,0.4,0.2,0.4,1.1,0.5v0.4h-3.4v-0.4c0.9,0,1.2-0.1,1.2-0.5v-5.5c0-0.3-0.2-0.4-1.2-0.5v-0.4h3.1
				c2.2,0,2.9,0.8,2.9,1.8c0,0.9-0.5,1.5-1.9,1.8V39c1.3,0.1,1.5,0.6,1.7,1.4l0.2,1c0.1,0.6,0.3,0.8,1.1,0.9v0.4c-0.1,0-0.3,0-0.4,0
				c-1.6,0-1.8-0.4-1.9-1.3l-0.1-0.8c-0.1-1-0.5-1.3-1.7-1.3h-0.8L177.4,41.7L177.4,41.7z M178.2,38.7c1.4,0,1.7-0.6,1.7-1.6
				c0-0.9-0.5-1.3-1.8-1.3h-0.8v2.9C177.3,38.7,178.2,38.7,178.2,38.7z"/>
			<path d="M184,40.5v-4.3c0-0.3-0.2-0.4-1.2-0.5v-0.4h3.3v0.4c-1,0-1.1,0.1-1.1,0.5v4.1c0,1.3,0.8,1.9,2.1,1.9c0.6,0,1-0.2,1.4-0.5
				c0.4-0.4,0.5-0.8,0.5-1.6v-3c0-1-0.2-1.2-1.3-1.3v-0.4h2.8v0.4c-1,0.2-1.1,0.3-1.1,1.3v3.4c0,1.2-1,2.3-2.8,2.3
				C185,42.8,184,41.9,184,40.5z"/>
			<path d="M192.6,40.5v-4.3c0-0.3-0.2-0.4-1.2-0.5v-0.4h3.3v0.4c-1,0-1.1,0.1-1.1,0.5v4.1c0,1.3,0.8,1.9,2.1,1.9
				c0.6,0,1-0.2,1.4-0.5c0.4-0.4,0.5-0.8,0.5-1.6v-3c0-1-0.2-1.2-1.3-1.3v-0.4h2.8v0.4c-1,0.2-1.1,0.3-1.1,1.3v3.4
				c0,1.2-1,2.3-2.8,2.3C193.6,42.8,192.6,41.9,192.6,40.5z"/>
			<path d="M202,36.6L202,36.6v4.2c0,1,0.1,1.3,1.2,1.4v0.4h-2.8v-0.4c1-0.2,1.1-0.4,1.1-1.5v-4.2c0-0.4-0.3-0.7-1.1-0.7v-0.4h2.1
				l4,5.5l0,0v-3.8c0-1-0.2-1.2-1.3-1.3v-0.4h2.8v0.4c-1,0.2-1.1,0.3-1.1,1.3v5.7h-0.5L202,36.6z"/>
		</g>
	</g>
	<g>
		<path d="M42.7,22.8l1.1-0.1c0,0,0.1,0,0.1-0.1V13l-1.2,0c0-0.5,0-1.1,0-1.7c1,0,3-0.1,4.2-0.1c2,0,3.4,0,4.6,0.5
			c0.9,0.4,1.7,1.5,1.7,2.5c0,1.4-1.1,2.5-2.4,2.9v0.2c1.7,0.2,3.1,1.6,3.1,3.3c0,2.1-2.1,3.8-5.6,3.8c-0.7,0-2.5,0-2.9,0
			c-0.7,0-2,0-2.9,0C42.7,23.9,42.7,23.3,42.7,22.8z M47.2,22.3c0,0.4,0.4,0.6,0.9,0.6c1.3,0,2.3-0.7,2.3-2c0-1.1-1-2.2-2.6-2.2
			c-0.2,0-0.5,0-0.5,0L47.2,22.3z M47.3,16.9c0.1,0,0.3,0,0.5,0c1.3,0,2.2-0.8,2.2-2c0-1.1-0.8-2-2-2c-0.3,0-0.6,0-0.7,0.1V16.9z"/>
		<path d="M55.7,13c0-0.6,0-1.1,0-1.7c0.8,0,2.1,0,3.1,0s2.1,0,3,0c0,0.5,0,1.1,0,1.7l-1.3,0.1c0,0,0,0,0,0.1l-0.1,9.5l1.4,0.1
			c0,0.6,0,1.1,0,1.7c-0.8,0-2,0-3,0c-0.9,0-2,0-3,0c0-0.6,0-1.2,0-1.8h1.1c0,0,0.1,0,0.1-0.1V13H55.7z"/>
		<path d="M63.5,13c0-0.6,0-1.1,0-1.7c0.8,0,2,0,2.9,0s2,0,3,0c0,0.5,0,1.1,0,1.7h-1.3c0,0-0.1,0-0.1,0.1l0.1,9.2
			c0,0.4,0,0.4,0.9,0.4c0.8,0,1.3-0.1,1.6-0.2c0.2,0,0.2-0.2,0.3-0.4l0.7-2.1c0.7,0.1,1.4,0.2,2,0.4c-0.2,1.3-0.5,2.7-0.8,4
			c-1,0-3.7,0-6.5,0c-0.9,0-2,0-2.8,0c0-0.6,0-1.1,0-1.7h1.1c0,0,0.1,0,0.1-0.1V13H63.5z"/>
		<path d="M74.7,23.5C74.7,23.5,74.8,23.5,74.7,23.5c1.5-3.7,3.4-8.7,4.8-12.3c0.2,0,0.7,0,1.1,0c1.4,3.7,3.1,8.7,4.4,12.4l1.2,0.1
			c0,0.2,0,0.7,0,0.9c-0.6,0-1.3,0-1.9,0c-0.9,0-1.9,0-2.7,0c0-0.3,0-0.7,0-1l1.6-0.1c0,0,0.1,0,0-0.1c-0.3-0.9-0.7-2-1.1-2.9
			c0-0.1-0.1-0.1-0.2-0.1h-4.8c-0.3,1-0.7,2.2-1.1,3.1l1.8,0.1c0,0.2,0,0.7,0,0.9c-0.7,0-1.7,0-2.7,0c-0.6,0-1.2,0-1.8,0
			c0-0.3,0-0.7,0-1L74.7,23.5z M79.8,13.3c-0.7,1.9-1.5,4.1-2.1,5.9c0,0.1,0,0.1,0,0.1H82C81.3,17.5,80.5,15.2,79.8,13.3L79.8,13.3z
			"/>
		<path d="M87,23.5h1.4c0,0,0.1,0,0.1-0.1V12.3H87c0-0.3,0-0.7,0-0.9c0.9,0,2.5,0,3.6,0c1.7,0,2.9,0.1,3.8,0.6
			c0.9,0.4,1.6,1.4,1.6,2.5c0,1.5-1.1,2.6-2.5,3.1v0.1c1.8,0.2,3.3,1.6,3.3,3.2c0,2.3-2,3.8-5.1,3.8c-0.5,0-2.1,0-2.5,0
			c-0.7,0-1.6,0-2.4,0C87,24.1,87,23.8,87,23.5z M90.2,22.8c0,0.6,0.4,0.7,1.7,0.7c1.6,0,3.4-0.7,3.4-2.8c0-1.2-1-2.8-3.8-2.8
			c-0.7,0-1.1,0-1.2,0L90.2,22.8z M90.2,17.1c0.1,0,0.5,0,1,0c1.8,0,3.4-1,3.4-2.5c0-1.4-1-2.5-3.2-2.5c-0.7,0-1,0-1.1,0.1v4.9H90.2
			z"/>
		<path d="M100.6,23c-1.1-1.1-1.8-2.9-1.8-5c0-2.6,1.3-4.7,2.9-5.8c1.2-0.8,2.5-1.1,3.8-1.1c1.2,0,2.4,0.3,3.4,1
			c1.5,1.1,2.5,3,2.5,5.4c0,2.1-0.7,4.2-2.1,5.6c-1.1,1.1-2.4,1.6-4.4,1.6C103.1,24.6,101.6,24,100.6,23z M108.1,22.4
			c0.8-0.9,1.5-2.3,1.5-4.5c0-1.9-0.5-3.5-1.5-4.6c-0.7-0.9-1.7-1.2-2.9-1.2c-1.1,0-2.1,0.3-2.9,1.1c-1,0.8-1.8,2.5-1.8,4.7
			c0,2,0.4,3.4,1.5,4.6c0.8,0.9,1.9,1.2,3.1,1.2C106.3,23.6,107.4,23.2,108.1,22.4z"/>
		<path d="M114.5,23.5C114.6,23.5,114.6,23.5,114.5,23.5l0.1-11.2l-1.5-0.1c0-0.3,0-0.7,0-0.9c0.9,0,2,0,2.9,0
			c2.3,3.4,5.1,7.5,7.3,11h0.1c0-3.4,0-6.6-0.1-10h-1.9c0-0.3,0-0.7,0-1c0.7,0,1.6,0,2.5,0c0.7,0,1.4,0,2,0c0,0.2,0,0.7,0,0.9
			l-1.2,0.1c0,0-0.1,0-0.1,0.1l-0.1,12c-0.2,0.1-0.7,0.2-1.1,0.2c-2.1-2.9-4.9-6.9-7.5-11h-0.1c0,3.3,0,6.5,0,9.8h2c0,0.3,0,0.7,0,1
			c-0.8,0-1.8,0-2.7,0c-0.7,0-1.4,0-2,0c0-0.3,0-0.7,0-1L114.5,23.5L114.5,23.5z"/>
		<path d="M129.1,23.5L129.1,23.5l0.1-11.2l-1.5-0.1c0-0.3,0-0.7,0-0.9c0.9,0,2,0,2.9,0c2.3,3.4,5.1,7.5,7.3,11h0.1
			c0-3.4,0-6.6-0.1-10H136c0-0.3,0-0.7,0-1c0.7,0,1.6,0,2.5,0c0.7,0,1.4,0,2,0c0,0.2,0,0.7,0,0.9l-1.2,0.1c0,0-0.1,0-0.1,0.1
			l-0.1,12c-0.2,0.1-0.7,0.2-1.1,0.2c-2.1-2.9-4.9-6.9-7.5-11h-0.1c0,3.3,0,6.5,0,9.8h2c0,0.3,0,0.7,0,1c-0.8,0-1.8,0-2.7,0
			c-0.7,0-1.4,0-2,0c0-0.3,0-0.7,0-1L129.1,23.5L129.1,23.5z"/>
		<path d="M143.8,23.5C143.8,23.5,143.9,23.5,143.8,23.5l0.1-11.2l-1.5-0.1c0-0.3,0-0.7,0-0.9c0.7,0,1.6,0,2.4,0c0.6,0,4,0,4.5,0
			c0.8,0,1.3,0,1.8,0c0.1,1,0.2,2,0.2,3.1c-0.3,0-0.7,0.1-1.1,0.1l-0.3-1.8c0-0.2-0.2-0.3-0.5-0.3c-0.5-0.1-1.9-0.1-3.2-0.1
			c-0.2,0-0.5,0-0.6,0v5c1.1,0,2.1,0,3.2,0c0.3,0,0.4-0.2,0.5-0.4l0.1-1c0.3,0,0.7,0,1.1,0c0,0.7,0,1.3,0,2c0,0.6,0,1.3,0,1.9
			c-0.3,0-0.7,0-1.1,0l-0.1-1.1c0-0.2-0.2-0.4-0.5-0.4c-0.9,0-2,0-3.2,0v4.9c0,0.3,0.1,0.4,1.1,0.4c1.6,0,2.8-0.1,3.2-0.2
			c0.2,0,0.2-0.2,0.3-0.4l0.7-1.9c0.3,0.1,0.7,0.2,1.1,0.2c-0.2,1.1-0.5,2.1-0.7,3.2c-0.9,0-3.6,0-6.3,0c-0.8,0-1.6,0-2.4,0
			c0-0.3,0-0.7,0-1H143.8z"/>
		<path d="M153.7,12.2c0-0.3,0-0.7,0-1c1.1,0,2.5,0,3.6,0c1.2,3,2.7,6.9,4.3,10.6h0.1c1.4-3.5,2.9-7.4,4.3-10.6c1.1,0,2.4,0,3.4,0
			c0,0.3,0,0.7,0,1h-1.3c0,0-0.1,0-0.1,0.1c0,3.4,0,7.5,0,11.1l1.4,0.1c0,0.3,0,0.7,0,0.9c-0.7,0-1.5,0-2.2,0c-0.8,0-1.7,0-2.4,0
			c0-0.3,0-0.7,0-1l1.6-0.1c0.1,0,0.1,0,0.1-0.1c0-3.1,0-6.9-0.1-10.2h-0.1c-1.8,4.7-3.3,8-4.4,10.6c-0.2,0-0.5,0-0.9,0
			c-1.3-2.9-2.9-6.5-4.4-10.8h-0.2c0,3.3-0.1,7.1-0.1,10.4l1.8,0.1c0,0.2,0,0.7,0,0.9c-0.7,0-1.6,0-2.5,0c-0.7,0-1.3,0-1.9,0
			c0-0.3,0-0.7,0-1l1.3-0.1c0,0,0.1,0,0.1-0.1c0-3.4,0.1-7.8,0.1-11.1L153.7,12.2z"/>
		<path d="M172.9,23.5L172.9,23.5l0.1-11.2l-1.5-0.1c0-0.3,0-0.7,0-0.9c0.7,0,1.6,0,2.4,0c0.6,0,4,0,4.5,0c0.8,0,1.3,0,1.8,0
			c0.1,1,0.2,2,0.2,3.1c-0.3,0-0.7,0.1-1.1,0.1l-0.3-1.8c0-0.2-0.2-0.3-0.5-0.3c-0.5-0.1-1.9-0.1-3.2-0.1c-0.2,0-0.5,0-0.6,0v5
			c1.1,0,2.1,0,3.2,0c0.3,0,0.4-0.2,0.5-0.4l0.1-1c0.3,0,0.7,0,1.1,0c0,0.7,0,1.3,0,2c0,0.6,0,1.3,0,1.9c-0.3,0-0.7,0-1.1,0
			l-0.1-1.1c0-0.2-0.2-0.4-0.5-0.4c-0.9,0-2,0-3.2,0v4.9c0,0.3,0.1,0.4,1.1,0.4c1.6,0,2.8-0.1,3.2-0.2c0.2,0,0.2-0.2,0.3-0.4
			l0.7-1.9c0.3,0.1,0.7,0.2,1.1,0.2c-0.2,1.1-0.5,2.1-0.7,3.2c-0.9,0-3.6,0-6.3,0c-0.8,0-1.6,0-2.4,0c0-0.3,0-0.7,0-1H172.9z"/>
		<path d="M184.1,23.5C184.2,23.5,184.2,23.5,184.1,23.5l0.1-11.2l-1.5-0.1c0-0.3,0-0.7,0-0.9c0.9,0,2,0,2.9,0
			c2.3,3.4,5.1,7.5,7.3,11h0.1c0-3.4,0-6.6-0.1-10H191c0-0.3,0-0.7,0-1c0.7,0,1.6,0,2.5,0c0.7,0,1.4,0,2,0c0,0.2,0,0.7,0,0.9
			l-1.2,0.1c0,0-0.1,0-0.1,0.1l-0.1,12c-0.2,0.1-0.7,0.2-1.1,0.2c-2.1-2.9-4.9-6.9-7.5-11h-0.1c0,3.3,0,6.5,0,9.8h2c0,0.3,0,0.7,0,1
			c-0.8,0-1.8,0-2.7,0c-0.7,0-1.4,0-2,0c0-0.3,0-0.7,0-1L184.1,23.5L184.1,23.5z"/>
		<path d="M201.7,23.5C201.7,23.5,201.7,23.4,201.7,23.5l0.1-11.2c-1.7,0-2.2,0-2.6,0.1c-0.4,0-0.5,0.2-0.5,0.4l-0.3,2
			c-0.3,0-0.7-0.1-1.1-0.1c0.1-1.1,0.1-2.3,0.2-3.4c0.4,0,1.1,0,1.9,0c0.4,0,2.8,0,3.4,0c0.7,0,2.9,0,3.4,0c0.8,0,1.3,0,1.8,0
			c0.1,1.1,0.1,2.2,0.2,3.4c-0.3,0-0.7,0.1-1.1,0.1l-0.3-2c0-0.2-0.1-0.3-0.5-0.3c-0.6-0.1-0.9-0.1-2.7-0.1l-0.1,11.2l1.9,0.1
			c0,0.2,0,0.7,0,1c-0.7,0-1.7,0-2.5,0s-1.8,0-2.6,0c0-0.3,0-0.7,0-1L201.7,23.5z"/>
		<g>
			<path class="st2" d="M16.6,11.6v6.9c0,0.8-0.7,1.6-1.6,1.6c-0.8,0-1.6-0.7-1.6-1.6v-6.9c0-0.8,0.7-1.6,1.6-1.6
				C15.9,10.1,16.6,10.8,16.6,11.6"/>
			<path d="M27,18.6c0-3.3-1.3-6.2-3.4-8.3c-2.2-2.1-5.1-3.5-8.4-3.5S8.9,8,6.8,10.1s-3.4,5.1-3.4,8.3s1.3,6.2,3.4,8.3
				s5.1,3.4,8.3,3.4s6.2-1.3,8.3-3.4C25.7,24.9,27,21.8,27,18.6 M31.4,5.6c0.6,0.6,0.6,1.6,0,2.1s-1.6,0.6-2.1,0l-0.6-0.6l-2.1,2
				c2.1,2.5,3.4,5.8,3.4,9.4c0,8.2-6.6,14.9-14.9,14.9c-8.2,0-14.8-6.6-14.8-14.9c0-7.7,5.9-14,13.3-14.8v-2c0-0.8,0.7-1.6,1.6-1.6
				c0.8,0,1.6,0.7,1.6,1.6v2.1c2.9,0.3,5.6,1.5,7.8,3.3l2.1-2l-0.6-0.6c-0.6-0.6-0.6-1.6,0-2.1s1.6-0.6,2.1,0L29.8,4L31.4,5.6z"/>
		</g>
	</g>
</g>
<g>
	<defs>
		<rect id="SVGID_1_" x="232.6" y="4.3" width="26.2" height="28.8"/>
	</defs>
	<clipPath id="SVGID_2_">
		<use xlink:href="#SVGID_1_"  style="overflow:visible;"/>
	</clipPath>
	<path class="st3" d="M245.4,33c-3.7-1.7-7-4.6-9.2-8c-2.2-3.4-3.3-7.4-3.6-12.6c-0.1-1.7-0.1-3.8,0-6.4l0-0.6l0.5-0.1
		c4.1-0.7,8.3-1,12.5-1c4.1,0,8.3,0.4,12.5,1l0.5,0.1l0,0.6c0.1,2.6,0.1,4.7,0,6.4c-0.3,5.2-1.4,9.2-3.6,12.6
		c-2.2,3.4-5.4,6.3-9.2,8l-0.3,0.1L245.4,33z"/>
	<path class="st4" d="M239.9,21.7c-0.1,0-0.1,0-0.1-0.1c0-0.1-0.1-0.6-0.1-0.8c0-0.1,0-0.1,0.1-0.1c0.4-0.1,1-0.3,1.4-0.5
		c0.1,0,0.2-0.1,0.2-0.2c0.2-0.3,0.7-1.2,0.9-1.7c0-0.1,0-0.1,0-0.2l-0.1-0.2c0-0.1-0.1-0.1-0.2-0.1c-0.5-0.1-1.1-0.3-1.5-0.4
		c-0.1,0-0.1,0-0.2,0l-0.1,0c0.5,0.2,0.9,0.3,1.4,0.5c0,0,0.1,0.1,0.1,0.1l0,0.2c0,0.1,0,0.1,0,0.2c-0.2,0.4-0.6,1-0.9,1.3
		c0,0.1-0.1,0.1-0.2,0.1c-0.3,0.1-0.8,0.3-1,0.3c0,0-0.1,0-0.1,0c-0.2-0.1-0.5-0.4-0.5-0.4s0,0.4,0,0.5c0,0,0,0,0,0.1
		c0.1,0.1,0.2,0.4,0.2,0.5c0,0,0,0.1,0,0.1c0.1,0.2,0.2,0.9,0.2,0.9c0,0.1,0.1,0.1,0.2,0.1c0.1,0,0.5-0.1,0.6-0.2c0,0,0,0,0.1,0
		c0.1-0.1,0.3-0.2,0.3-0.2S240.1,21.7,239.9,21.7"/>
	<path class="st4" d="M240.7,19.6c0.2-0.2,0.4-0.6,0.7-0.9l-1.6,1.3C240.1,19.9,240.4,19.8,240.7,19.6
		C240.7,19.7,240.7,19.6,240.7,19.6"/>
	<path class="st4" d="M240.8,14.4l-0.3,0c0,0,0,0,0,0l0,0.3c0,0,0,0,0,0l0.3-0.1c0,0,0.1,0,0.1-0.1
		C240.9,14.6,240.9,14.5,240.8,14.4C240.8,14.4,240.8,14.4,240.8,14.4"/>
	<path class="st4" d="M238.1,18.6l0.4,0.5l0.1-0.9C238.4,18.2,238.1,18.4,238.1,18.6"/>
	<path class="st4" d="M251.9,18.5c-0.2-0.3-1-1.5-2.1-2.6c0,0-0.1-0.1-0.1-0.1l-0.2-0.1c0,0,0.3,1.4,0.5,2.1c0,0.1,0.1,0.2,0.1,0.3
		c0.5,0.5,0.8,0.9,1.1,1.2c0.1,0.2,0.2,0.4,0.2,0.6c0.1,1.1,0,2.6-0.1,3.4c0,0.2-0.1,0.2-0.2,0.3c-1,0.8-2.8,2.3-3.5,3.1
		c-0.1,0.1-0.1,0.1-0.2,0.2c-0.1,0.1-0.2,0.4-0.2,0.4s-0.2-0.5-0.2-0.8c0-0.1,0-0.2,0-0.3c0.1-0.6,0.5-2.1,0.6-2.3c0,0,0,0,0-0.1
		v-0.1c-0.2,0.3-1,2.2-1.2,2.8c0,0.1,0,0.2,0,0.3c0.1,0.3,0.4,1.1,0.6,1.4c0,0,0.3-0.6,0.5-0.9c0.1-0.1,0.1-0.2,0.2-0.2
		c0.6-0.5,2.7-2.3,3.7-3c0.1-0.1,0.2-0.2,0.2-0.3c0.4-1.5,0.6-3.3,0.4-4.9C252,18.6,251.9,18.5,251.9,18.5"/>
	<path class="st4" d="M247.6,14.1c0-0.1,0.1-0.2,0-0.2c0-0.2-0.1-0.4-0.1-0.6c0,0,0-0.1-0.1-0.1l-0.3-0.1c0,0-0.1,0-0.1,0
		c-0.7,0.1-1.5,0.3-2,0.4c0,0-0.1,0-0.1,0.1l-0.2,0.3c0,0,0,0.1,0,0.1c0.1,0,0.5,0.1,0.6,0.1c0.1,0,0.1,0,0.1,0
		c0.4-0.1,0.9-0.4,1.4-0.5c0,0,0.1,0,0.1,0l0.2,0.1c0,0,0.1,0,0.1,0.1c0.1,0.1,0.1,0.2,0.1,0.3c0,0,0,0.1,0,0.2
		c-0.1,0.2-0.4,0.6-0.6,0.8c0,0-0.1,0.1,0,0.2c0.1,0.4,0.3,1.1,0.4,1.4c0,0,0,0.1,0.1,0.1l0.2,0.2c0,0-0.3-1.2-0.3-1.6
		c0-0.1,0-0.1,0-0.2C247.2,14.7,247.5,14.3,247.6,14.1"/>
	<path class="st4" d="M254,15.1c0-0.1-0.1-0.1-0.1-0.2c-0.8-0.6-2.2-1.4-3.1-1.8c-0.1,0-0.2,0-0.3,0c-0.4,0.1-1.1,0.4-1.7,0.7
		c0,0,0.3,0,0.4,0c0.1,0,0.1,0,0.2,0c0.2-0.1,0.6-0.1,0.9-0.2c0.1,0,0.3,0,0.4,0.1c0.4,0.3,1,0.8,1.4,1.2c0.1,0.1,0.2,0.1,0.2,0.1
		c0.6,0.2,0.9,0.4,1,0.4c0.1,0.1,0.2,0.1,0.2,0.2c0.2,0.6,0.3,1.6,0.3,2.3c0,0.1,0,0.3,0,0.4c-0.2,0.5-0.6,1.3-0.9,1.7
		c0,0,0,0.1-0.1,0.1c-0.1,0.1-0.2,0.2-0.4,0.3c0,0,0,0,0,0.1c0,0.3-0.1,0.8-0.1,0.8c0.6-0.8,1.2-1.7,1.7-2.8c0-0.1,0.1-0.1,0.1-0.2
		C254.2,17.2,254.2,15.9,254,15.1"/>
	<path class="st4" d="M246,28.5c-0.1-0.3-0.9-2.1-1.1-2.7c-0.1-0.2-0.1-0.3-0.1-0.6c0.2-1.6,0.8-4.2,0.8-4.6c0-0.1,0-0.1,0-0.2
		c0-0.1-0.1-0.6-0.1-0.6c-0.3,0.6-1.2,3.1-1.6,4.6c-0.1,0.3-0.1,0.4,0,0.5c0.5,1.3,1.8,3.6,2,4l-0.1-0.4
		C246.1,28.6,246.1,28.5,246,28.5"/>
	<path class="st4" d="M244.9,28.6c0,0-0.3-0.2-0.4-0.2c-0.1-0.1-0.1-0.1-0.2-0.1c-0.6-0.5-2.6-3-3.2-4.1c-0.1-0.2-0.1-0.3-0.1-0.5
		c0-0.2,0.1-0.6,0.1-0.9c0-0.1,0.1-0.2,0.2-0.4c0.3-0.3,0.9-0.9,1.2-1.2c0.1-0.1,0.2-0.2,0.3-0.3c0.3-0.5,1.1-2.3,1.4-3
		c0-0.1,0.1-0.2,0-0.3c-0.1-0.4-0.4-1.4-0.4-1.4l0,0.3c0,0,0,0,0,0.1c0,0.1,0.1,0.7,0.1,1c0,0.1,0,0.1-0.1,0.2c-0.4,0.8-2,3-3,4.1
		c-0.1,0.1-0.1,0.2-0.2,0.4c-0.1,0.2-0.1,0.8-0.2,1.3c0,0.2,0,0.3,0.1,0.6c0.6,1,2.7,3.5,3.4,4c0,0,0.1,0.1,0.1,0.1
		c0.2,0.1,0.9,0.5,0.9,0.5L244.9,28.6C244.9,28.6,244.9,28.6,244.9,28.6"/>
	<path class="st4" d="M241.9,14.1l1.3-0.4c0.1,0,0.1-0.1,0.2-0.1l0.7-1.2c0,0,0-0.1,0-0.1l-0.6,0c-0.1,0-0.1,0-0.2,0
		c-0.5,0.2-1.2,0.5-1.7,0.7c0,0-0.1,0.1-0.1,0.1l-0.6,0.8c0,0,0,0-0.1,0.1l-0.4,0.2c0,0,0,0,0,0l0,0c0,0,0.9,0,1.1,0
		C241.6,14.2,241.7,14.1,241.9,14.1"/>
	<path class="st4" d="M244.2,11.3c1.6-0.1,3.5-0.1,4-0.1c0.1,0,0.1,0,0.2,0l0.3,0.1c-0.8,0-2.8,0.2-3.6,0.4l0.3,0c0,0,0,0,0.1,0
		c0.6,0,1.7-0.1,2.3-0.1c0.1,0,0.2,0,0.3,0.1c0.3,0.1,0.9,0.4,1.1,0.5c0.1,0.1,0.2,0.1,0.3,0.1c0.3,0,0.7,0,1,0.1
		c0.1,0,0.2,0,0.2,0.1c0.6,0.3,1.4,0.8,1.9,1.1c0,0,0.1,0,0.1,0l0.2,0c0,0-0.8-0.8-1.1-1.1c0,0-0.1-0.1-0.1-0.1
		c-1.2-0.7-2.3-1.2-2.9-1.5c-0.1,0-0.2-0.1-0.3-0.1c-1.8-0.1-3.8-0.1-5.2,0c-0.1,0-0.2,0.1-0.2,0.1c-0.1,0.1-0.1,0.2-0.2,0.4
		c0,0.1-0.1,0.1-0.1,0.2c-0.3,0.2-0.7,0.6-1,0.8c0,0,0,0-0.1,0c-0.1,0.1-0.5,0.3-0.6,0.4c0,0,0,0-0.1,0c0,0-0.1,0.2-0.1,0.2
		c1.1-0.6,2.6-1.4,3.1-1.7C244.1,11.3,244.2,11.3,244.2,11.3"/>
	<path class="st4" d="M238.9,14.9C238.9,14.9,238.9,14.9,238.9,14.9c-1.1,0.8-1.6,1.2-1.9,1.4c-0.1,0.1-0.2,0.2-0.3,0.3
		c-0.1,0.1-0.1,0.1-0.1,0.2c0,0,0,0.1,0,0.2c0,0,0,0,0,0.1c0,0,0.1,0.1,0.1,0.1c0,0,0,0,0,0c0.1-0.1,0.4-0.3,0.5-0.4
		c0,0,0,0,0.1-0.1c0-0.1,0.1-0.1,0.1-0.2c0,0,0,0,0.1-0.1c0,0,0.2-0.1,0.2-0.1s-0.1,0.4-0.1,0.5c0,0,0,0.1-0.1,0.1
		c-0.1,0.2-0.4,0.5-0.6,0.6c0,0.1,0,0.1,0,0.2c0.1,0.2,0.4,0.5,0.5,0.7c0,0.1,0.1,0.1,0.1,0.1c0.1,0,0.1,0.1,0.1,0.1
		s0.1-0.6,0.2-0.8c0-0.1,0.1-0.1,0.1-0.1c0.7-0.2,2.1-0.4,2.1-0.4c-0.2-0.2-0.7-0.7-0.8-0.8c0,0-0.1-0.1-0.1-0.1
		c-0.2,0-0.8-0.1-0.8-0.1s0.1-0.1,0.1-0.1c0,0,0.1-0.1,0.1-0.1c0.7-0.3,1.7-0.6,2.3-0.9c0.1-0.1,0.2-0.1,0.3-0.2
		c0,0,0.1-0.1,0.2-0.2c0,0,0,0,0,0c0,0,0-0.1,0-0.1s-0.2,0.2-0.3,0.3c-0.1,0.1-0.1,0.1-0.3,0.1c-0.2,0.1-0.6,0.1-0.8,0.2
		c-0.1,0-0.1,0-0.1,0c0,0-0.1,0-0.1-0.1c0,0-0.1,0-0.1,0c-0.2,0-0.8,0.2-0.8,0.2s0.3-0.2,0.3-0.2c0,0,0,0,0.1,0
		c0.2-0.1,0.4-0.2,0.6-0.2c0,0,0.1,0,0.1-0.1c0-0.2,0.1-0.4,0.1-0.6c0,0,0-0.1,0.1-0.1c0.1-0.1,0.5-0.4,0.6-0.5c0,0,0,0,0,0l0.1-0.1
		c-0.3,0.2-0.9,0.5-1.1,0.7c-0.1,0.1-0.2,0.1-0.3,0.2c0,0,0,0,0,0C239.3,14.4,239,14.7,238.9,14.9"/>
	<path class="st4" d="M257.7,12.5c-0.3,4.9-1.3,8.7-3.4,11.9c-2,3.2-5.1,5.9-8.6,7.6c-3.5-1.6-6.6-4.3-8.6-7.6
		c-2-3.2-3.1-7-3.4-11.9c-0.1-1.6-0.1-3.6,0-6.1c4-0.7,8-1,12-1c4,0,8,0.3,12,1C257.8,8.9,257.8,10.9,257.7,12.5 M258.2,5.9
		c-4.2-0.7-8.4-1.1-12.5-1.1c-4,0-8.2,0.3-12.5,1.1c-0.1,1.7-0.1,4.3,0,6.6c0.3,5,1.4,8.8,3.5,12.2c2.1,3.3,5.3,6.1,9,7.8
		c3.7-1.7,7-4.5,9-7.8c2.1-3.3,3.2-7.2,3.5-12.2C258.3,10.3,258.2,7.6,258.2,5.9"/>
	<path class="st4" d="M245.2,8.9c-0.4,0-0.6-0.1-0.6-0.5V7.7c0-0.4,0.2-0.5,0.6-0.5c0.6,0,1.1,0,1.7,0v0.3c-0.6,0-1.2,0-1.8,0
		c-0.1,0-0.2,0.1-0.2,0.1v0.9c0,0.1,0.1,0.2,0.2,0.2c0.5,0,1.1,0,1.6,0V8.2c-0.3,0-0.6,0-0.9,0V7.9c0.4,0,0.8,0,1.2,0v1
		C246.3,8.9,245.8,8.9,245.2,8.9"/>
	<path class="st4" d="M237.5,8.4c0,0.1-0.1,0.1-0.2,0.2c-0.5,0.1-1,0.1-1.6,0.2V8.1c0.5-0.1,1-0.1,1.6-0.2c0.1,0,0.2,0.1,0.2,0.1
		V8.4z M237.2,7.6c-0.6,0.1-1.2,0.1-1.8,0.2v1.7c0.1,0,0.2,0,0.3,0V9c0.5-0.1,1-0.1,1.5-0.2c0.4,0,0.5-0.2,0.5-0.5V8.1
		C237.8,7.7,237.6,7.6,237.2,7.6"/>
	<path class="st4" d="M240.7,7.6V7.3c-0.7,0-1.5,0.1-2.2,0.2v1.7c0.7-0.1,1.5-0.1,2.2-0.2V8.8c-0.6,0-1.3,0.1-1.9,0.1V8.5
		c0.6,0,1.1-0.1,1.7-0.1V8.1c-0.6,0-1.1,0.1-1.7,0.1V7.8C239.4,7.7,240,7.7,240.7,7.6"/>
	<path class="st4" d="M249.9,7.6V7.3c-0.7,0-1.5-0.1-2.2-0.1V9c0.7,0,1.5,0,2.2,0.1V8.8c-0.6,0-1.3-0.1-1.9-0.1V8.2
		c0.6,0,1.1,0,1.7,0.1V8c-0.6,0-1.1,0-1.7-0.1V7.5C248.6,7.5,249.2,7.5,249.9,7.6"/>
	<path class="st4" d="M242.1,9c-0.4,0-0.6-0.1-0.6-0.5V7.3c0.1,0,0.2,0,0.3,0v1.3c0,0.1,0.1,0.1,0.2,0.1c0.5,0,1,0,1.4-0.1
		c0.1,0,0.2-0.1,0.2-0.2V7.2c0.1,0,0.2,0,0.3,0v1.3c0,0.4-0.2,0.5-0.6,0.5C242.8,9,242.4,9,242.1,9"/>
	<path class="st4" d="M251.3,9.1c-0.4,0-0.6-0.1-0.6-0.5V7.8c0-0.4,0.2-0.5,0.6-0.4c0.4,0,0.8,0.1,1.2,0.1c0.4,0,0.6,0.1,0.6,0.5
		v0.8c0,0.4-0.2,0.5-0.6,0.4C252,9.2,251.6,9.1,251.3,9.1 M251.1,7.6c-0.1,0-0.2,0.1-0.2,0.1v0.9c0,0.1,0.1,0.2,0.2,0.2
		c0.5,0,1,0.1,1.5,0.1c0.1,0,0.2-0.1,0.2-0.1V7.9c0-0.1-0.1-0.2-0.2-0.2C252.1,7.7,251.6,7.7,251.1,7.6"/>
	<path class="st4" d="M255.9,7.8c-0.8-0.1-1.6-0.2-2.3-0.3v0.3c0.3,0,0.7,0.1,1,0.1v1.5c0.1,0,0.2,0,0.3,0V8c0.3,0,0.7,0.1,1,0.1
		V7.8z"/>
</g>
</svg>
