<?xml version="1.0" encoding="UTF-8" standalone="no"?>
<svg
   xmlns:dc="http://purl.org/dc/elements/1.1/"
   xmlns:cc="http://creativecommons.org/ns#"
   xmlns:rdf="http://www.w3.org/1999/02/22-rdf-syntax-ns#"
   xmlns:svg="http://www.w3.org/2000/svg"
   xmlns="http://www.w3.org/2000/svg"
   width="100"
   height="100"
   version="1.1"
   id="svg8">
  <g
     id="layer1">
    <g
       id="g72"
       transform="matrix(1.3706427,0,0,1.3706427,84.556209,110.8453)">
      <path
         class="st2"
         d="m 16.6,11.6 v 6.9 c 0,0.8 -0.7,1.6 -1.6,1.6 -0.8,0 -1.6,-0.7 -1.6,-1.6 v -6.9 c 0,-0.8 0.7,-1.6 1.6,-1.6 0.9,0.1 1.6,0.8 1.6,1.6"
         id="path68" />
      <path
         d="M 27,18.6 C 27,15.3 25.7,12.4 23.6,10.3 21.4,8.2 18.5,6.8 15.2,6.8 11.9,6.8 8.9,8 6.8,10.1 c -2.1,2.1 -3.4,5.1 -3.4,8.3 0,3.2 1.3,6.2 3.4,8.3 2.1,2.1 5.1,3.4 8.3,3.4 3.2,0 6.2,-1.3 8.3,-3.4 2.3,-1.8 3.6,-4.9 3.6,-8.1 m 4.4,-13 c 0.6,0.6 0.6,1.6 0,2.1 -0.6,0.5 -1.6,0.6 -2.1,0 l -0.6,-0.6 -2.1,2 c 2.1,2.5 3.4,5.8 3.4,9.4 0,8.2 -6.6,14.9 -14.9,14.9 C 6.9,33.4 0.3,26.8 0.3,18.5 0.3,10.8 6.2,4.5 13.6,3.7 v -2 c 0,-0.8 0.7,-1.6 1.6,-1.6 0.8,0 1.6,0.7 1.6,1.6 v 2.1 c 2.9,0.3 5.6,1.5 7.8,3.3 l 2.1,-2 -0.6,-0.6 c -0.6,-0.6 -0.6,-1.6 0,-2.1 0.6,-0.5 1.6,-0.6 2.1,0 L 29.8,4 Z"
         id="path70" />
    </g>
  </g>
  <style
     type="text/css"
     id="style10">
	.st0{fill-rule:evenodd;clip-rule:evenodd;fill:#1D1D1B;}
	.st1{fill:#1D1D1B;}
	.st2{fill:#0093C6;}
	.st3{clip-path:url(#SVGID_2_);fill:#000309;}
	.st4{clip-path:url(#SVGID_2_);fill:#FFFFFF;}
</style>
</svg>
