<?xml version="1.0" encoding="utf-8"?>
<svg viewBox="0.3 0.1 31.55 33.3" xmlns="http://www.w3.org/2000/svg">
  <defs>
    <style type="text/css">
	.st0{fill-rule:evenodd;clip-rule:evenodd;fill:#1D1D1B;}
	.st1{fill:#1D1D1B;}
	.st2{fill:#0093C6;}
	.st3{clip-path:url(#SVGID_2_);fill:#000309;}
	.st4{clip-path:url(#SVGID_2_);fill:#FFFFFF;}
</style>
  </defs>
  <g>
    <path class="st2" d="M16.6,11.6v6.9c0,0.8-0.7,1.6-1.6,1.6c-0.8,0-1.6-0.7-1.6-1.6v-6.9c0-0.8,0.7-1.6,1.6-1.6 C15.9,10.1,16.6,10.8,16.6,11.6"/>
    <path d="M27,18.6c0-3.3-1.3-6.2-3.4-8.3c-2.2-2.1-5.1-3.5-8.4-3.5S8.9,8,6.8,10.1s-3.4,5.1-3.4,8.3s1.3,6.2,3.4,8.3 s5.1,3.4,8.3,3.4s6.2-1.3,8.3-3.4C25.7,24.9,27,21.8,27,18.6 M31.4,5.6c0.6,0.6,0.6,1.6,0,2.1s-1.6,0.6-2.1,0l-0.6-0.6l-2.1,2 c2.1,2.5,3.4,5.8,3.4,9.4c0,8.2-6.6,14.9-14.9,14.9c-8.2,0-14.8-6.6-14.8-14.9c0-7.7,5.9-14,13.3-14.8v-2c0-0.8,0.7-1.6,1.6-1.6 c0.8,0,1.6,0.7,1.6,1.6v2.1c2.9,0.3,5.6,1.5,7.8,3.3l2.1-2l-0.6-0.6c-0.6-0.6-0.6-1.6,0-2.1s1.6-0.6,2.1,0L29.8,4L31.4,5.6z"/>
  </g>
</svg>